<svg xmlns="http://www.w3.org/2000/svg" xmlns:xlink="http://www.w3.org/1999/xlink" width="500" zoomAndPan="magnify" viewBox="0 0 375 374.999991" height="500" preserveAspectRatio="xMidYMid meet" version="1.0"><defs><g/><linearGradient x1="0" gradientTransform="matrix(0.75, 0, 0, 0.75, 0.0000045, 0)" y1="250" x2="499.999979" gradientUnits="userSpaceOnUse" y2="250" id="1939209103"><stop stop-opacity="1" stop-color="rgb(36.499023%, 87.799072%, 90.19928%)" offset="0"/><stop stop-opacity="1" stop-color="rgb(36.355591%, 87.568665%, 90.110779%)" offset="0.00390625"/><stop stop-opacity="1" stop-color="rgb(36.213684%, 87.339783%, 90.023804%)" offset="0.0078125"/><stop stop-opacity="1" stop-color="rgb(36.070251%, 87.109375%, 89.936829%)" offset="0.0117187"/><stop stop-opacity="1" stop-color="rgb(35.928345%, 86.880493%, 89.849854%)" offset="0.015625"/><stop stop-opacity="1" stop-color="rgb(35.786438%, 86.650085%, 89.761353%)" offset="0.0195312"/><stop stop-opacity="1" stop-color="rgb(35.644531%, 86.421204%, 89.674377%)" offset="0.0234375"/><stop stop-opacity="1" stop-color="rgb(35.501099%, 86.190796%, 89.585876%)" offset="0.0273438"/><stop stop-opacity="1" stop-color="rgb(35.359192%, 85.961914%, 89.498901%)" offset="0.03125"/><stop stop-opacity="1" stop-color="rgb(35.215759%, 85.731506%, 89.411926%)" offset="0.0351562"/><stop stop-opacity="1" stop-color="rgb(35.073853%, 85.502625%, 89.324951%)" offset="0.0390625"/><stop stop-opacity="1" stop-color="rgb(34.93042%, 85.272217%, 89.23645%)" offset="0.0429687"/><stop stop-opacity="1" stop-color="rgb(34.788513%, 85.043335%, 89.149475%)" offset="0.046875"/><stop stop-opacity="1" stop-color="rgb(34.645081%, 84.812927%, 89.060974%)" offset="0.0507812"/><stop stop-opacity="1" stop-color="rgb(34.503174%, 84.584045%, 88.973999%)" offset="0.0546875"/><stop stop-opacity="1" stop-color="rgb(34.359741%, 84.353638%, 88.885498%)" offset="0.0585938"/><stop stop-opacity="1" stop-color="rgb(34.217834%, 84.124756%, 88.798523%)" offset="0.0625"/><stop stop-opacity="1" stop-color="rgb(34.074402%, 83.894348%, 88.711548%)" offset="0.0664062"/><stop stop-opacity="1" stop-color="rgb(33.932495%, 83.665466%, 88.624573%)" offset="0.0703125"/><stop stop-opacity="1" stop-color="rgb(33.789062%, 83.435059%, 88.536072%)" offset="0.0742187"/><stop stop-opacity="1" stop-color="rgb(33.647156%, 83.206177%, 88.449097%)" offset="0.078125"/><stop stop-opacity="1" stop-color="rgb(33.503723%, 82.975769%, 88.360596%)" offset="0.0820312"/><stop stop-opacity="1" stop-color="rgb(33.361816%, 82.745361%, 88.273621%)" offset="0.0859375"/><stop stop-opacity="1" stop-color="rgb(33.21991%, 82.514954%, 88.186646%)" offset="0.0898437"/><stop stop-opacity="1" stop-color="rgb(33.078003%, 82.286072%, 88.09967%)" offset="0.09375"/><stop stop-opacity="1" stop-color="rgb(32.93457%, 82.055664%, 88.011169%)" offset="0.0976562"/><stop stop-opacity="1" stop-color="rgb(32.792664%, 81.826782%, 87.924194%)" offset="0.101562"/><stop stop-opacity="1" stop-color="rgb(32.649231%, 81.596375%, 87.835693%)" offset="0.105469"/><stop stop-opacity="1" stop-color="rgb(32.507324%, 81.367493%, 87.748718%)" offset="0.109375"/><stop stop-opacity="1" stop-color="rgb(32.363892%, 81.137085%, 87.661743%)" offset="0.113281"/><stop stop-opacity="1" stop-color="rgb(32.221985%, 80.908203%, 87.574768%)" offset="0.117188"/><stop stop-opacity="1" stop-color="rgb(32.078552%, 80.677795%, 87.486267%)" offset="0.121094"/><stop stop-opacity="1" stop-color="rgb(31.936646%, 80.448914%, 87.399292%)" offset="0.125"/><stop stop-opacity="1" stop-color="rgb(31.793213%, 80.218506%, 87.310791%)" offset="0.128906"/><stop stop-opacity="1" stop-color="rgb(31.651306%, 79.989624%, 87.223816%)" offset="0.132812"/><stop stop-opacity="1" stop-color="rgb(31.507874%, 79.759216%, 87.136841%)" offset="0.136719"/><stop stop-opacity="1" stop-color="rgb(31.365967%, 79.530334%, 87.049866%)" offset="0.140625"/><stop stop-opacity="1" stop-color="rgb(31.222534%, 79.299927%, 86.961365%)" offset="0.144531"/><stop stop-opacity="1" stop-color="rgb(31.080627%, 79.071045%, 86.87439%)" offset="0.148437"/><stop stop-opacity="1" stop-color="rgb(30.938721%, 78.840637%, 86.785889%)" offset="0.152344"/><stop stop-opacity="1" stop-color="rgb(30.796814%, 78.611755%, 86.698914%)" offset="0.15625"/><stop stop-opacity="1" stop-color="rgb(30.653381%, 78.381348%, 86.611938%)" offset="0.160156"/><stop stop-opacity="1" stop-color="rgb(30.511475%, 78.152466%, 86.524963%)" offset="0.164062"/><stop stop-opacity="1" stop-color="rgb(30.368042%, 77.922058%, 86.436462%)" offset="0.167969"/><stop stop-opacity="1" stop-color="rgb(30.226135%, 77.693176%, 86.349487%)" offset="0.171875"/><stop stop-opacity="1" stop-color="rgb(30.082703%, 77.462769%, 86.260986%)" offset="0.175781"/><stop stop-opacity="1" stop-color="rgb(29.940796%, 77.233887%, 86.174011%)" offset="0.179687"/><stop stop-opacity="1" stop-color="rgb(29.797363%, 77.003479%, 86.08551%)" offset="0.183594"/><stop stop-opacity="1" stop-color="rgb(29.655457%, 76.774597%, 85.998535%)" offset="0.1875"/><stop stop-opacity="1" stop-color="rgb(29.512024%, 76.544189%, 85.91156%)" offset="0.191406"/><stop stop-opacity="1" stop-color="rgb(29.370117%, 76.315308%, 85.824585%)" offset="0.195312"/><stop stop-opacity="1" stop-color="rgb(29.226685%, 76.0849%, 85.736084%)" offset="0.199219"/><stop stop-opacity="1" stop-color="rgb(29.084778%, 75.856018%, 85.649109%)" offset="0.203125"/><stop stop-opacity="1" stop-color="rgb(28.941345%, 75.62561%, 85.560608%)" offset="0.207031"/><stop stop-opacity="1" stop-color="rgb(28.799438%, 75.396729%, 85.473633%)" offset="0.210938"/><stop stop-opacity="1" stop-color="rgb(28.657532%, 75.166321%, 85.386658%)" offset="0.214844"/><stop stop-opacity="1" stop-color="rgb(28.515625%, 74.937439%, 85.299683%)" offset="0.21875"/><stop stop-opacity="1" stop-color="rgb(28.372192%, 74.707031%, 85.211182%)" offset="0.222656"/><stop stop-opacity="1" stop-color="rgb(28.230286%, 74.476624%, 85.124207%)" offset="0.226562"/><stop stop-opacity="1" stop-color="rgb(28.086853%, 74.246216%, 85.035706%)" offset="0.230469"/><stop stop-opacity="1" stop-color="rgb(27.944946%, 74.017334%, 84.94873%)" offset="0.234375"/><stop stop-opacity="1" stop-color="rgb(27.801514%, 73.786926%, 84.861755%)" offset="0.238281"/><stop stop-opacity="1" stop-color="rgb(27.659607%, 73.558044%, 84.77478%)" offset="0.242188"/><stop stop-opacity="1" stop-color="rgb(27.516174%, 73.327637%, 84.686279%)" offset="0.246094"/><stop stop-opacity="1" stop-color="rgb(27.374268%, 73.098755%, 84.599304%)" offset="0.25"/><stop stop-opacity="1" stop-color="rgb(27.230835%, 72.868347%, 84.510803%)" offset="0.253906"/><stop stop-opacity="1" stop-color="rgb(27.088928%, 72.639465%, 84.423828%)" offset="0.257812"/><stop stop-opacity="1" stop-color="rgb(26.945496%, 72.409058%, 84.336853%)" offset="0.261719"/><stop stop-opacity="1" stop-color="rgb(26.803589%, 72.180176%, 84.249878%)" offset="0.265625"/><stop stop-opacity="1" stop-color="rgb(26.660156%, 71.949768%, 84.161377%)" offset="0.269531"/><stop stop-opacity="1" stop-color="rgb(26.51825%, 71.720886%, 84.074402%)" offset="0.273437"/><stop stop-opacity="1" stop-color="rgb(26.374817%, 71.490479%, 83.985901%)" offset="0.277344"/><stop stop-opacity="1" stop-color="rgb(26.23291%, 71.261597%, 83.898926%)" offset="0.28125"/><stop stop-opacity="1" stop-color="rgb(26.091003%, 71.031189%, 83.811951%)" offset="0.285156"/><stop stop-opacity="1" stop-color="rgb(25.949097%, 70.802307%, 83.724976%)" offset="0.289062"/><stop stop-opacity="1" stop-color="rgb(25.805664%, 70.571899%, 83.636475%)" offset="0.292969"/><stop stop-opacity="1" stop-color="rgb(25.663757%, 70.343018%, 83.5495%)" offset="0.296875"/><stop stop-opacity="1" stop-color="rgb(25.520325%, 70.11261%, 83.460999%)" offset="0.300781"/><stop stop-opacity="1" stop-color="rgb(25.378418%, 69.883728%, 83.374023%)" offset="0.304687"/><stop stop-opacity="1" stop-color="rgb(25.234985%, 69.65332%, 83.285522%)" offset="0.308594"/><stop stop-opacity="1" stop-color="rgb(25.093079%, 69.424438%, 83.198547%)" offset="0.3125"/><stop stop-opacity="1" stop-color="rgb(24.949646%, 69.194031%, 83.111572%)" offset="0.316406"/><stop stop-opacity="1" stop-color="rgb(24.807739%, 68.965149%, 83.024597%)" offset="0.320312"/><stop stop-opacity="1" stop-color="rgb(24.664307%, 68.734741%, 82.936096%)" offset="0.324219"/><stop stop-opacity="1" stop-color="rgb(24.5224%, 68.505859%, 82.849121%)" offset="0.328125"/><stop stop-opacity="1" stop-color="rgb(24.378967%, 68.275452%, 82.76062%)" offset="0.332031"/><stop stop-opacity="1" stop-color="rgb(24.237061%, 68.04657%, 82.673645%)" offset="0.335937"/><stop stop-opacity="1" stop-color="rgb(24.093628%, 67.816162%, 82.58667%)" offset="0.339844"/><stop stop-opacity="1" stop-color="rgb(23.951721%, 67.58728%, 82.499695%)" offset="0.34375"/><stop stop-opacity="1" stop-color="rgb(23.809814%, 67.356873%, 82.411194%)" offset="0.347656"/><stop stop-opacity="1" stop-color="rgb(23.667908%, 67.127991%, 82.324219%)" offset="0.351562"/><stop stop-opacity="1" stop-color="rgb(23.524475%, 66.897583%, 82.235718%)" offset="0.355469"/><stop stop-opacity="1" stop-color="rgb(23.382568%, 66.668701%, 82.148743%)" offset="0.359375"/><stop stop-opacity="1" stop-color="rgb(23.239136%, 66.438293%, 82.061768%)" offset="0.363281"/><stop stop-opacity="1" stop-color="rgb(23.097229%, 66.207886%, 81.974792%)" offset="0.367187"/><stop stop-opacity="1" stop-color="rgb(22.953796%, 65.977478%, 81.886292%)" offset="0.371094"/><stop stop-opacity="1" stop-color="rgb(22.81189%, 65.748596%, 81.799316%)" offset="0.375"/><stop stop-opacity="1" stop-color="rgb(22.668457%, 65.518188%, 81.710815%)" offset="0.378906"/><stop stop-opacity="1" stop-color="rgb(22.52655%, 65.289307%, 81.62384%)" offset="0.382812"/><stop stop-opacity="1" stop-color="rgb(22.383118%, 65.058899%, 81.536865%)" offset="0.386719"/><stop stop-opacity="1" stop-color="rgb(22.241211%, 64.830017%, 81.44989%)" offset="0.390625"/><stop stop-opacity="1" stop-color="rgb(22.097778%, 64.599609%, 81.361389%)" offset="0.394531"/><stop stop-opacity="1" stop-color="rgb(21.955872%, 64.370728%, 81.274414%)" offset="0.398438"/><stop stop-opacity="1" stop-color="rgb(21.812439%, 64.14032%, 81.185913%)" offset="0.402344"/><stop stop-opacity="1" stop-color="rgb(21.670532%, 63.911438%, 81.098938%)" offset="0.40625"/><stop stop-opacity="1" stop-color="rgb(21.528625%, 63.68103%, 81.011963%)" offset="0.410156"/><stop stop-opacity="1" stop-color="rgb(21.386719%, 63.452148%, 80.924988%)" offset="0.414062"/><stop stop-opacity="1" stop-color="rgb(21.243286%, 63.221741%, 80.836487%)" offset="0.417969"/><stop stop-opacity="1" stop-color="rgb(21.101379%, 62.992859%, 80.749512%)" offset="0.421875"/><stop stop-opacity="1" stop-color="rgb(20.957947%, 62.762451%, 80.661011%)" offset="0.425781"/><stop stop-opacity="1" stop-color="rgb(20.81604%, 62.533569%, 80.574036%)" offset="0.429688"/><stop stop-opacity="1" stop-color="rgb(20.672607%, 62.303162%, 80.485535%)" offset="0.433594"/><stop stop-opacity="1" stop-color="rgb(20.530701%, 62.07428%, 80.39856%)" offset="0.4375"/><stop stop-opacity="1" stop-color="rgb(20.387268%, 61.843872%, 80.311584%)" offset="0.441406"/><stop stop-opacity="1" stop-color="rgb(20.245361%, 61.61499%, 80.224609%)" offset="0.445312"/><stop stop-opacity="1" stop-color="rgb(20.101929%, 61.384583%, 80.136108%)" offset="0.449219"/><stop stop-opacity="1" stop-color="rgb(19.960022%, 61.155701%, 80.049133%)" offset="0.453125"/><stop stop-opacity="1" stop-color="rgb(19.816589%, 60.925293%, 79.960632%)" offset="0.457031"/><stop stop-opacity="1" stop-color="rgb(19.674683%, 60.696411%, 79.873657%)" offset="0.460938"/><stop stop-opacity="1" stop-color="rgb(19.53125%, 60.466003%, 79.786682%)" offset="0.464844"/><stop stop-opacity="1" stop-color="rgb(19.389343%, 60.237122%, 79.699707%)" offset="0.46875"/><stop stop-opacity="1" stop-color="rgb(19.245911%, 60.006714%, 79.611206%)" offset="0.472656"/><stop stop-opacity="1" stop-color="rgb(19.104004%, 59.777832%, 79.524231%)" offset="0.476562"/><stop stop-opacity="1" stop-color="rgb(18.962097%, 59.547424%, 79.43573%)" offset="0.480469"/><stop stop-opacity="1" stop-color="rgb(18.82019%, 59.318542%, 79.348755%)" offset="0.484375"/><stop stop-opacity="1" stop-color="rgb(18.676758%, 59.088135%, 79.26178%)" offset="0.488281"/><stop stop-opacity="1" stop-color="rgb(18.534851%, 58.859253%, 79.174805%)" offset="0.492188"/><stop stop-opacity="1" stop-color="rgb(18.391418%, 58.628845%, 79.086304%)" offset="0.496094"/><stop stop-opacity="1" stop-color="rgb(18.249512%, 58.399963%, 78.999329%)" offset="0.5"/><stop stop-opacity="1" stop-color="rgb(18.106079%, 58.169556%, 78.910828%)" offset="0.503906"/><stop stop-opacity="1" stop-color="rgb(17.964172%, 57.939148%, 78.823853%)" offset="0.507812"/><stop stop-opacity="1" stop-color="rgb(17.82074%, 57.70874%, 78.736877%)" offset="0.511719"/><stop stop-opacity="1" stop-color="rgb(17.678833%, 57.479858%, 78.649902%)" offset="0.515625"/><stop stop-opacity="1" stop-color="rgb(17.5354%, 57.249451%, 78.561401%)" offset="0.519531"/><stop stop-opacity="1" stop-color="rgb(17.393494%, 57.020569%, 78.474426%)" offset="0.523437"/><stop stop-opacity="1" stop-color="rgb(17.250061%, 56.790161%, 78.385925%)" offset="0.527344"/><stop stop-opacity="1" stop-color="rgb(17.108154%, 56.561279%, 78.29895%)" offset="0.53125"/><stop stop-opacity="1" stop-color="rgb(16.964722%, 56.330872%, 78.211975%)" offset="0.535156"/><stop stop-opacity="1" stop-color="rgb(16.822815%, 56.10199%, 78.125%)" offset="0.539062"/><stop stop-opacity="1" stop-color="rgb(16.680908%, 55.871582%, 78.036499%)" offset="0.542969"/><stop stop-opacity="1" stop-color="rgb(16.539001%, 55.6427%, 77.949524%)" offset="0.546875"/><stop stop-opacity="1" stop-color="rgb(16.395569%, 55.412292%, 77.861023%)" offset="0.550781"/><stop stop-opacity="1" stop-color="rgb(16.253662%, 55.183411%, 77.774048%)" offset="0.554687"/><stop stop-opacity="1" stop-color="rgb(16.110229%, 54.953003%, 77.685547%)" offset="0.558594"/><stop stop-opacity="1" stop-color="rgb(15.968323%, 54.724121%, 77.598572%)" offset="0.5625"/><stop stop-opacity="1" stop-color="rgb(15.82489%, 54.493713%, 77.511597%)" offset="0.566406"/><stop stop-opacity="1" stop-color="rgb(15.682983%, 54.264832%, 77.424622%)" offset="0.570312"/><stop stop-opacity="1" stop-color="rgb(15.539551%, 54.034424%, 77.336121%)" offset="0.574219"/><stop stop-opacity="1" stop-color="rgb(15.397644%, 53.805542%, 77.249146%)" offset="0.578125"/><stop stop-opacity="1" stop-color="rgb(15.254211%, 53.575134%, 77.160645%)" offset="0.582031"/><stop stop-opacity="1" stop-color="rgb(15.112305%, 53.346252%, 77.073669%)" offset="0.585937"/><stop stop-opacity="1" stop-color="rgb(14.968872%, 53.115845%, 76.986694%)" offset="0.589844"/><stop stop-opacity="1" stop-color="rgb(14.826965%, 52.886963%, 76.899719%)" offset="0.59375"/><stop stop-opacity="1" stop-color="rgb(14.683533%, 52.656555%, 76.811218%)" offset="0.597656"/><stop stop-opacity="1" stop-color="rgb(14.541626%, 52.427673%, 76.724243%)" offset="0.601562"/><stop stop-opacity="1" stop-color="rgb(14.399719%, 52.197266%, 76.635742%)" offset="0.605469"/><stop stop-opacity="1" stop-color="rgb(14.257812%, 51.968384%, 76.548767%)" offset="0.609375"/><stop stop-opacity="1" stop-color="rgb(14.11438%, 51.737976%, 76.461792%)" offset="0.613281"/><stop stop-opacity="1" stop-color="rgb(13.972473%, 51.509094%, 76.374817%)" offset="0.617187"/><stop stop-opacity="1" stop-color="rgb(13.829041%, 51.278687%, 76.286316%)" offset="0.621094"/><stop stop-opacity="1" stop-color="rgb(13.687134%, 51.049805%, 76.199341%)" offset="0.625"/><stop stop-opacity="1" stop-color="rgb(13.543701%, 50.819397%, 76.11084%)" offset="0.628906"/><stop stop-opacity="1" stop-color="rgb(13.401794%, 50.590515%, 76.023865%)" offset="0.632812"/><stop stop-opacity="1" stop-color="rgb(13.258362%, 50.360107%, 75.93689%)" offset="0.636719"/><stop stop-opacity="1" stop-color="rgb(13.116455%, 50.131226%, 75.849915%)" offset="0.640625"/><stop stop-opacity="1" stop-color="rgb(12.973022%, 49.900818%, 75.761414%)" offset="0.644531"/><stop stop-opacity="1" stop-color="rgb(12.831116%, 49.67041%, 75.674438%)" offset="0.648437"/><stop stop-opacity="1" stop-color="rgb(12.687683%, 49.440002%, 75.585938%)" offset="0.652344"/><stop stop-opacity="1" stop-color="rgb(12.545776%, 49.211121%, 75.498962%)" offset="0.65625"/><stop stop-opacity="1" stop-color="rgb(12.402344%, 48.980713%, 75.410461%)" offset="0.660156"/><stop stop-opacity="1" stop-color="rgb(12.260437%, 48.751831%, 75.323486%)" offset="0.664062"/><stop stop-opacity="1" stop-color="rgb(12.117004%, 48.521423%, 75.236511%)" offset="0.667969"/><stop stop-opacity="1" stop-color="rgb(11.975098%, 48.292542%, 75.149536%)" offset="0.671875"/><stop stop-opacity="1" stop-color="rgb(11.833191%, 48.062134%, 75.061035%)" offset="0.675781"/><stop stop-opacity="1" stop-color="rgb(11.691284%, 47.833252%, 74.97406%)" offset="0.679687"/><stop stop-opacity="1" stop-color="rgb(11.547852%, 47.602844%, 74.885559%)" offset="0.683594"/><stop stop-opacity="1" stop-color="rgb(11.405945%, 47.373962%, 74.798584%)" offset="0.6875"/><stop stop-opacity="1" stop-color="rgb(11.262512%, 47.143555%, 74.711609%)" offset="0.691406"/><stop stop-opacity="1" stop-color="rgb(11.120605%, 46.914673%, 74.624634%)" offset="0.695312"/><stop stop-opacity="1" stop-color="rgb(10.977173%, 46.684265%, 74.536133%)" offset="0.699219"/><stop stop-opacity="1" stop-color="rgb(10.835266%, 46.455383%, 74.449158%)" offset="0.703125"/><stop stop-opacity="1" stop-color="rgb(10.691833%, 46.224976%, 74.360657%)" offset="0.707031"/><stop stop-opacity="1" stop-color="rgb(10.549927%, 45.996094%, 74.273682%)" offset="0.710937"/><stop stop-opacity="1" stop-color="rgb(10.406494%, 45.765686%, 74.186707%)" offset="0.714844"/><stop stop-opacity="1" stop-color="rgb(10.264587%, 45.536804%, 74.099731%)" offset="0.71875"/><stop stop-opacity="1" stop-color="rgb(10.121155%, 45.306396%, 74.01123%)" offset="0.722656"/><stop stop-opacity="1" stop-color="rgb(9.979248%, 45.077515%, 73.924255%)" offset="0.726562"/><stop stop-opacity="1" stop-color="rgb(9.835815%, 44.847107%, 73.835754%)" offset="0.730469"/><stop stop-opacity="1" stop-color="rgb(9.693909%, 44.618225%, 73.748779%)" offset="0.734375"/><stop stop-opacity="1" stop-color="rgb(9.552002%, 44.387817%, 73.661804%)" offset="0.738281"/><stop stop-opacity="1" stop-color="rgb(9.410095%, 44.158936%, 73.574829%)" offset="0.742187"/><stop stop-opacity="1" stop-color="rgb(9.266663%, 43.928528%, 73.486328%)" offset="0.746094"/><stop stop-opacity="1" stop-color="rgb(9.124756%, 43.699646%, 73.399353%)" offset="0.75"/><stop stop-opacity="1" stop-color="rgb(8.981323%, 43.469238%, 73.310852%)" offset="0.753906"/><stop stop-opacity="1" stop-color="rgb(8.839417%, 43.240356%, 73.223877%)" offset="0.757812"/><stop stop-opacity="1" stop-color="rgb(8.695984%, 43.009949%, 73.136902%)" offset="0.761719"/><stop stop-opacity="1" stop-color="rgb(8.554077%, 42.781067%, 73.049927%)" offset="0.765625"/><stop stop-opacity="1" stop-color="rgb(8.410645%, 42.550659%, 72.961426%)" offset="0.769531"/><stop stop-opacity="1" stop-color="rgb(8.268738%, 42.321777%, 72.874451%)" offset="0.773438"/><stop stop-opacity="1" stop-color="rgb(8.125305%, 42.09137%, 72.78595%)" offset="0.777344"/><stop stop-opacity="1" stop-color="rgb(7.983398%, 41.862488%, 72.698975%)" offset="0.78125"/><stop stop-opacity="1" stop-color="rgb(7.839966%, 41.63208%, 72.610474%)" offset="0.785156"/><stop stop-opacity="1" stop-color="rgb(7.698059%, 41.401672%, 72.523499%)" offset="0.789062"/><stop stop-opacity="1" stop-color="rgb(7.554626%, 41.171265%, 72.436523%)" offset="0.792969"/><stop stop-opacity="1" stop-color="rgb(7.41272%, 40.942383%, 72.349548%)" offset="0.796875"/><stop stop-opacity="1" stop-color="rgb(7.270813%, 40.711975%, 72.261047%)" offset="0.800781"/><stop stop-opacity="1" stop-color="rgb(7.128906%, 40.483093%, 72.174072%)" offset="0.804688"/><stop stop-opacity="1" stop-color="rgb(6.985474%, 40.252686%, 72.085571%)" offset="0.808594"/><stop stop-opacity="1" stop-color="rgb(6.843567%, 40.023804%, 71.998596%)" offset="0.8125"/><stop stop-opacity="1" stop-color="rgb(6.700134%, 39.793396%, 71.911621%)" offset="0.816406"/><stop stop-opacity="1" stop-color="rgb(6.558228%, 39.564514%, 71.824646%)" offset="0.820312"/><stop stop-opacity="1" stop-color="rgb(6.414795%, 39.334106%, 71.736145%)" offset="0.824219"/><stop stop-opacity="1" stop-color="rgb(6.272888%, 39.105225%, 71.64917%)" offset="0.828125"/><stop stop-opacity="1" stop-color="rgb(6.129456%, 38.874817%, 71.560669%)" offset="0.832031"/><stop stop-opacity="1" stop-color="rgb(5.987549%, 38.645935%, 71.473694%)" offset="0.835938"/><stop stop-opacity="1" stop-color="rgb(5.844116%, 38.415527%, 71.386719%)" offset="0.839844"/><stop stop-opacity="1" stop-color="rgb(5.702209%, 38.186646%, 71.299744%)" offset="0.84375"/><stop stop-opacity="1" stop-color="rgb(5.558777%, 37.956238%, 71.211243%)" offset="0.847656"/><stop stop-opacity="1" stop-color="rgb(5.41687%, 37.727356%, 71.124268%)" offset="0.851562"/><stop stop-opacity="1" stop-color="rgb(5.273438%, 37.496948%, 71.035767%)" offset="0.855469"/><stop stop-opacity="1" stop-color="rgb(5.131531%, 37.268066%, 70.948792%)" offset="0.859375"/><stop stop-opacity="1" stop-color="rgb(4.988098%, 37.037659%, 70.861816%)" offset="0.863281"/><stop stop-opacity="1" stop-color="rgb(4.846191%, 36.808777%, 70.774841%)" offset="0.867188"/><stop stop-opacity="1" stop-color="rgb(4.704285%, 36.578369%, 70.68634%)" offset="0.871094"/><stop stop-opacity="1" stop-color="rgb(4.562378%, 36.349487%, 70.599365%)" offset="0.875"/><stop stop-opacity="1" stop-color="rgb(4.418945%, 36.11908%, 70.510864%)" offset="0.878906"/><stop stop-opacity="1" stop-color="rgb(4.277039%, 35.890198%, 70.423889%)" offset="0.882812"/><stop stop-opacity="1" stop-color="rgb(4.133606%, 35.65979%, 70.336914%)" offset="0.886719"/><stop stop-opacity="1" stop-color="rgb(3.991699%, 35.430908%, 70.249939%)" offset="0.890625"/><stop stop-opacity="1" stop-color="rgb(3.848267%, 35.2005%, 70.161438%)" offset="0.894531"/><stop stop-opacity="1" stop-color="rgb(3.70636%, 34.971619%, 70.074463%)" offset="0.898438"/><stop stop-opacity="1" stop-color="rgb(3.562927%, 34.741211%, 69.985962%)" offset="0.902344"/><stop stop-opacity="1" stop-color="rgb(3.421021%, 34.512329%, 69.898987%)" offset="0.90625"/><stop stop-opacity="1" stop-color="rgb(3.277588%, 34.281921%, 69.810486%)" offset="0.910156"/><stop stop-opacity="1" stop-color="rgb(3.135681%, 34.05304%, 69.723511%)" offset="0.914062"/><stop stop-opacity="1" stop-color="rgb(2.992249%, 33.822632%, 69.636536%)" offset="0.917969"/><stop stop-opacity="1" stop-color="rgb(2.850342%, 33.59375%, 69.549561%)" offset="0.921875"/><stop stop-opacity="1" stop-color="rgb(2.706909%, 33.363342%, 69.46106%)" offset="0.925781"/><stop stop-opacity="1" stop-color="rgb(2.565002%, 33.132935%, 69.374084%)" offset="0.929688"/><stop stop-opacity="1" stop-color="rgb(2.423096%, 32.902527%, 69.285583%)" offset="0.933594"/><stop stop-opacity="1" stop-color="rgb(2.281189%, 32.673645%, 69.198608%)" offset="0.9375"/><stop stop-opacity="1" stop-color="rgb(2.137756%, 32.443237%, 69.111633%)" offset="0.941406"/><stop stop-opacity="1" stop-color="rgb(1.99585%, 32.214355%, 69.024658%)" offset="0.945312"/><stop stop-opacity="1" stop-color="rgb(1.852417%, 31.983948%, 68.936157%)" offset="0.949219"/><stop stop-opacity="1" stop-color="rgb(1.71051%, 31.755066%, 68.849182%)" offset="0.953125"/><stop stop-opacity="1" stop-color="rgb(1.567078%, 31.524658%, 68.760681%)" offset="0.957031"/><stop stop-opacity="1" stop-color="rgb(1.425171%, 31.295776%, 68.673706%)" offset="0.960938"/><stop stop-opacity="1" stop-color="rgb(1.281738%, 31.065369%, 68.586731%)" offset="0.964844"/><stop stop-opacity="1" stop-color="rgb(1.139832%, 30.836487%, 68.499756%)" offset="0.96875"/><stop stop-opacity="1" stop-color="rgb(0.996399%, 30.606079%, 68.411255%)" offset="0.972656"/><stop stop-opacity="1" stop-color="rgb(0.854492%, 30.377197%, 68.32428%)" offset="0.976562"/><stop stop-opacity="1" stop-color="rgb(0.71106%, 30.14679%, 68.235779%)" offset="0.980469"/><stop stop-opacity="1" stop-color="rgb(0.569153%, 29.917908%, 68.148804%)" offset="0.984375"/><stop stop-opacity="1" stop-color="rgb(0.42572%, 29.6875%, 68.061829%)" offset="0.988281"/><stop stop-opacity="1" stop-color="rgb(0.283813%, 29.458618%, 67.974854%)" offset="0.992188"/><stop stop-opacity="1" stop-color="rgb(0.141907%, 29.22821%, 67.886353%)" offset="0.996094"/><stop stop-opacity="1" stop-color="rgb(0%, 28.999329%, 67.799377%)" offset="1"/></linearGradient><clipPath id="0ce5972bd3"><path d="M 79 82 L 296 82 L 296 300 L 79 300 Z M 79 82 " clip-rule="nonzero"/></clipPath><clipPath id="dd1d303d6d"><path d="M 233.078125 44.78125 L 332.683594 240.664062 L 142.152344 337.546875 L 42.546875 141.667969 Z M 233.078125 44.78125 " clip-rule="nonzero"/></clipPath><clipPath id="6db7d97d97"><path d="M 233.078125 44.78125 L 332.683594 240.664062 L 142.152344 337.546875 L 42.546875 141.667969 Z M 233.078125 44.78125 " clip-rule="nonzero"/></clipPath><clipPath id="f8f9704ff2"><path d="M 267.824219 120.898438 C 227.867188 75.238281 159.320312 69.632812 115.019531 108.402344 C 105.449219 116.773438 97.6875 126.734375 91.75 137.902344 L 92.035156 138.050781 L 91.75 137.902344 C 81.585938 157.035156 77.574219 178.765625 80.140625 200.738281 C 82.765625 223.203125 92.128906 244.191406 107.222656 261.441406 C 147.144531 307.054688 215.625 312.65625 259.875 273.929688 C 304.179688 235.160156 307.78125 166.554688 267.824219 120.898438 Z M 103.417969 240.941406 C 105.109375 242.871094 106.585938 244.382812 107.695312 245.457031 C 115.109375 252.621094 125.355469 253.171875 136.203125 253.75 C 148.734375 254.417969 162.9375 255.179688 175.148438 266.539062 C 185.484375 276.160156 195.640625 284.582031 207.121094 288.410156 C 195.480469 284.945312 185.238281 277.050781 175.164062 268.289062 C 163.019531 257.71875 149.128906 256.511719 136.871094 255.441406 C 125.875 254.484375 115.484375 253.578125 107.980469 246.199219 C 101.289062 239.617188 95 231.078125 90.195312 221.074219 C 94.53125 229.832031 99.535156 236.503906 103.417969 240.941406 Z M 98.679688 234.085938 C 100.191406 236.121094 101.660156 237.917969 103 239.449219 C 104.882812 241.601562 106.523438 243.25 107.726562 244.390625 C 114.957031 251.246094 125.011719 251.445312 135.65625 251.652344 C 148.515625 251.90625 163.082031 252.191406 175.425781 264.445312 C 185.558594 274.511719 194.960938 283.238281 206.171875 287.585938 C 195.191406 283.628906 185.40625 275.484375 175.445312 266.214844 C 163.117188 254.746094 148.828125 253.980469 136.222656 253.308594 C 125.460938 252.734375 115.296875 252.191406 108 245.140625 C 106.765625 243.941406 103.003906 240.132812 98.679688 234.085938 Z M 174.882812 270.359375 C 162.960938 260.683594 149.496094 259.0625 137.621094 257.628906 C 126.347656 256.273438 115.703125 254.988281 107.964844 247.253906 C 101.941406 241.234375 96.253906 233.609375 91.671875 224.78125 C 95.78125 232.484375 100.292969 238.398438 103.796875 242.40625 C 105.3125 244.136719 106.640625 245.511719 107.664062 246.519531 C 115.285156 254.011719 125.753906 254.925781 136.832031 255.890625 C 149.015625 256.953125 162.832031 258.15625 174.867188 268.625 C 185.21875 277.632812 195.742188 285.722656 207.765625 289.085938 C 195.558594 286.089844 184.9375 278.515625 174.882812 270.355469 Z M 208.160156 289.679688 C 195.460938 287.128906 184.523438 279.917969 174.597656 272.429688 C 162.957031 263.644531 150.519531 261.738281 138.492188 259.890625 C 126.902344 258.117188 115.957031 256.4375 107.941406 248.316406 C 101.933594 242.21875 96.265625 234.535156 91.6875 225.667969 C 95.933594 233.683594 100.597656 239.792969 104.148438 243.851562 C 105.5 245.398438 106.691406 246.648438 107.636719 247.589844 C 115.492188 255.4375 126.214844 256.730469 137.566406 258.097656 C 149.960938 259.589844 162.773438 261.136719 174.589844 270.722656 C 184.839844 279.039062 195.671875 286.753906 208.160156 289.683594 Z M 104.273438 245.070312 C 105.355469 246.308594 106.46875 247.503906 107.597656 248.652344 C 115.726562 256.886719 126.75 258.578125 138.417969 260.367188 C 150.386719 262.203125 162.765625 264.101562 174.308594 272.8125 C 183.589844 279.816406 194.632812 287.167969 207.1875 289.992188 C 195.246094 287.734375 184.464844 281.605469 174.3125 274.5 C 163.019531 266.597656 151.074219 264.386719 139.519531 262.242188 C 127.550781 260.023438 116.246094 257.925781 107.921875 249.375 C 101.332031 242.609375 95.140625 233.960938 90.359375 223.917969 C 94.125 231.660156 98.855469 238.882812 104.273438 245.074219 Z M 104.570312 246.464844 C 105.546875 247.582031 106.546875 248.667969 107.570312 249.714844 C 116.003906 258.382812 127.386719 260.492188 139.433594 262.726562 C 150.9375 264.855469 162.824219 267.0625 174.035156 274.90625 C 183.789062 281.730469 196.898438 289.761719 211.789062 291.261719 C 212.464844 291.332031 213.144531 291.371094 213.820312 291.410156 C 199.140625 290.914062 186.15625 284.40625 174.035156 276.570312 C 163.164062 269.542969 151.773438 267.082031 140.757812 264.699219 C 128.335938 262.011719 116.597656 259.472656 107.90625 250.429688 C 101.472656 243.734375 95.421875 235.246094 90.679688 225.425781 C 94.457031 233.117188 99.175781 240.296875 104.574219 246.464844 Z M 105.78125 253.230469 C 106.320312 253.839844 106.863281 254.445312 107.410156 255.042969 C 118.652344 267.25 133.554688 271.96875 149.332031 276.964844 C 156.996094 279.394531 164.925781 281.902344 172.660156 285.367188 C 188.273438 292.359375 203.078125 295.023438 217.277344 293.351562 C 203.113281 295.375 188.289062 293.222656 172.597656 286.925781 C 166.316406 284.40625 159.910156 282.296875 153.710938 280.253906 C 136.40625 274.554688 120.0625 269.167969 107.800781 255.726562 C 105.007812 252.667969 102.351562 249.324219 99.863281 245.757812 C 101.726562 248.351562 103.695312 250.851562 105.777344 253.234375 Z M 99.351562 244.015625 C 101.285156 246.746094 103.351562 249.367188 105.53125 251.859375 C 106.15625 252.574219 106.796875 253.285156 107.441406 253.980469 C 117.847656 265.171875 131.660156 269.265625 146.28125 273.613281 C 155.050781 276.21875 164.125 278.910156 172.933594 283.273438 C 186.152344 289.824219 198.613281 293.148438 210.625 293.242188 C 198.539062 293.523438 186 290.726562 172.886719 284.859375 C 165.121094 281.378906 157.179688 278.867188 149.503906 276.433594 C 133.796875 271.460938 118.964844 266.765625 107.824219 254.667969 C 104.828125 251.417969 101.992188 247.851562 99.351562 244.019531 Z M 104.730469 247.722656 C 105.644531 248.765625 106.582031 249.789062 107.535156 250.785156 C 116.335938 259.9375 128.144531 262.492188 140.648438 265.195312 C 151.621094 267.570312 162.964844 270.023438 173.757812 276.996094 C 188.351562 286.429688 200.21875 290.988281 212.234375 291.761719 C 197.832031 291.261719 185.105469 285.398438 173.75 278.640625 C 163.40625 272.492188 152.652344 269.851562 142.253906 267.296875 C 129.273438 264.109375 117.015625 261.097656 107.886719 251.492188 C 103.582031 246.960938 99.457031 241.625 95.769531 235.640625 C 98.460938 239.933594 101.460938 243.984375 104.730469 247.726562 Z M 105.007812 249.109375 C 105.824219 250.039062 106.65625 250.957031 107.503906 251.847656 C 116.738281 261.566406 129.070312 264.59375 142.125 267.800781 C 152.488281 270.347656 163.203125 272.980469 173.480469 279.089844 C 187.65625 287.523438 199.882812 291.699219 211.859375 292.21875 C 197.171875 292.039062 184.304688 286.617188 173.460938 280.710938 C 163.777344 275.441406 153.773438 272.710938 144.097656 270.070312 C 130.429688 266.34375 117.519531 262.820312 107.863281 252.546875 C 104.1875 248.640625 100.738281 244.25 97.617188 239.464844 C 99.890625 242.851562 102.355469 246.082031 105.007812 249.109375 Z M 105.273438 250.484375 C 105.992188 251.308594 106.726562 252.117188 107.476562 252.910156 C 117.230469 263.292969 130.210938 266.835938 143.957031 270.585938 C 153.601562 273.21875 163.578125 275.9375 173.207031 281.179688 C 183.261719 286.65625 195.039062 291.71875 208.386719 292.628906 C 197.144531 292.164062 185.488281 288.882812 173.175781 282.785156 C 164.324219 278.398438 155.230469 275.699219 146.4375 273.085938 C 131.890625 268.765625 118.152344 264.683594 107.847656 253.605469 C 104.632812 250.148438 101.601562 246.316406 98.800781 242.191406 C 100.820312 245.082031 102.980469 247.859375 105.277344 250.484375 Z M 106.03125 254.597656 C 106.476562 255.101562 106.925781 255.609375 107.382812 256.109375 C 119.742188 269.660156 136.15625 275.070312 153.535156 280.792969 C 159.722656 282.832031 166.121094 284.9375 172.386719 287.457031 C 185.78125 292.832031 198.550781 295.195312 210.820312 294.550781 C 198.46875 295.566406 185.613281 293.726562 172.3125 288.992188 C 168.183594 287.523438 163.976562 286.128906 159.910156 284.78125 C 140.238281 278.273438 121.664062 272.125 107.789062 256.777344 C 104.015625 252.601562 100.632812 248.164062 97.628906 243.53125 C 100.191406 247.414062 102.996094 251.121094 106.03125 254.59375 Z M 106.273438 255.964844 C 106.628906 256.371094 106.992188 256.777344 107.351562 257.175781 C 121.328125 272.636719 139.980469 278.808594 159.722656 285.34375 C 163.789062 286.6875 167.992188 288.082031 172.117188 289.546875 C 185.527344 294.320312 198.484375 296.175781 210.933594 295.136719 C 198.398438 296.550781 185.347656 295.21875 172.023438 291.066406 L 170.03125 290.445312 C 147.507812 283.4375 124.21875 276.191406 107.769531 257.839844 C 107.488281 257.527344 107.214844 257.21875 106.9375 256.902344 C 104.019531 253.570312 101.347656 250.070312 98.902344 246.453125 C 101.183594 249.769531 103.640625 252.957031 106.277344 255.96875 Z M 106.472656 257.28125 C 106.75 257.601562 107.035156 257.925781 107.320312 258.242188 C 123.878906 276.71875 147.246094 283.992188 169.847656 291.023438 L 171.84375 291.640625 C 185.246094 295.820312 198.375 297.160156 210.988281 295.742188 C 198.285156 297.542969 185.054688 296.714844 171.730469 293.140625 C 149.945312 287.296875 125.3125 278.660156 107.746094 258.898438 C 107.558594 258.6875 107.378906 258.484375 107.195312 258.273438 C 105.214844 256.007812 103.347656 253.671875 101.582031 251.277344 C 103.132812 253.328125 104.765625 255.335938 106.46875 257.28125 Z M 107.710938 261.015625 C 105.746094 258.769531 103.890625 256.457031 102.132812 254.089844 C 103.699219 256.15625 105.339844 258.175781 107.0625 260.140625 L 107.261719 260.371094 C 122.644531 277.777344 144.191406 289.703125 171.308594 295.824219 C 184.09375 298.710938 196.746094 299.226562 208.90625 297.480469 C 172.898438 303.679688 134.054688 291.113281 107.714844 261.015625 Z M 171.441406 295.210938 C 144.460938 289.125 123.023438 277.261719 107.730469 259.957031 L 107.535156 259.738281 C 105.621094 257.546875 103.8125 255.296875 102.089844 252.988281 C 103.570312 254.925781 105.109375 256.820312 106.722656 258.664062 C 106.910156 258.878906 107.097656 259.09375 107.289062 259.304688 C 124.964844 279.191406 149.703125 287.871094 171.574219 293.734375 C 187.121094 297.902344 202.539062 298.367188 217.15625 295.285156 C 202.566406 298.707031 187.105469 298.75 171.441406 295.210938 Z M 258.464844 274.285156 C 258.289062 274.433594 258.113281 274.582031 257.9375 274.726562 C 257.742188 274.886719 257.550781 275.046875 257.355469 275.207031 C 257.191406 275.339844 257.03125 275.472656 256.867188 275.601562 C 256.695312 275.730469 256.527344 275.871094 256.359375 276 C 256.222656 276.109375 256.082031 276.214844 255.945312 276.320312 C 255.753906 276.464844 255.558594 276.605469 255.371094 276.753906 C 255.34375 276.773438 255.3125 276.796875 255.285156 276.816406 C 254.890625 277.109375 254.503906 277.390625 254.109375 277.671875 C 254.089844 277.683594 254.074219 277.699219 254.054688 277.710938 C 253.460938 278.128906 252.871094 278.535156 252.28125 278.933594 C 252.171875 279.007812 252.058594 279.085938 251.953125 279.15625 C 251.632812 279.363281 251.3125 279.59375 250.992188 279.796875 C 250.90625 279.851562 250.828125 279.898438 250.742188 279.957031 C 249.890625 280.5 249.046875 281.007812 248.207031 281.507812 C 247.914062 281.675781 247.628906 281.847656 247.335938 282.011719 C 246.722656 282.367188 246.109375 282.703125 245.5 283.035156 C 245.027344 283.289062 244.5625 283.535156 244.09375 283.773438 C 244.035156 283.804688 243.976562 283.835938 243.917969 283.863281 C 243.78125 283.933594 243.648438 284 243.507812 284.066406 C 211.621094 299.785156 192.671875 280.96875 175.730469 264.144531 C 163.269531 251.765625 148.605469 251.476562 135.667969 251.222656 C 125.105469 251.019531 115.132812 250.820312 108.023438 244.082031 C 104.523438 240.761719 80.84375 216.917969 81.25 180.363281 C 81.339844 175.695312 81.789062 170.90625 82.675781 166.015625 C 82.710938 165.820312 82.746094 165.628906 82.785156 165.433594 C 82.9375 164.621094 83.113281 163.800781 83.289062 162.984375 C 83.460938 162.210938 83.628906 161.4375 83.820312 160.660156 C 83.898438 160.335938 83.984375 160.007812 84.066406 159.683594 C 84.363281 158.515625 84.675781 157.347656 85.019531 156.175781 C 85.019531 156.175781 85.019531 156.175781 85.023438 156.171875 C 85.402344 154.882812 85.816406 153.597656 86.253906 152.308594 C 86.308594 152.160156 86.355469 152.011719 86.410156 151.867188 C 86.769531 150.828125 87.15625 149.785156 87.554688 148.746094 C 87.730469 148.289062 87.90625 147.832031 88.09375 147.375 C 88.277344 146.90625 88.476562 146.441406 88.675781 145.976562 C 88.757812 145.777344 88.839844 145.578125 88.921875 145.378906 C 88.960938 145.292969 88.996094 145.203125 89.035156 145.117188 C 89.300781 144.503906 89.5625 143.886719 89.84375 143.273438 C 89.878906 143.199219 89.90625 143.125 89.941406 143.046875 C 89.960938 143.003906 89.984375 142.960938 90.003906 142.917969 C 90.089844 142.738281 90.175781 142.554688 90.261719 142.375 C 90.472656 141.917969 90.695312 141.460938 90.917969 141.003906 C 90.964844 140.902344 91.015625 140.800781 91.066406 140.703125 C 91.160156 140.507812 91.257812 140.316406 91.351562 140.121094 C 91.429688 139.972656 91.5 139.824219 91.578125 139.675781 C 91.824219 139.183594 92.0625 138.691406 92.320312 138.203125 C 98.207031 127.125 106.09375 117.347656 115.582031 109.042969 C 159.527344 70.585938 227.53125 76.15625 267.179688 121.460938 C 306.828125 166.761719 303.402344 234.988281 259.457031 273.445312 C 259.132812 273.730469 258.796875 274.007812 258.46875 274.292969 Z M 258.464844 274.285156 " clip-rule="nonzero"/></clipPath></defs><rect x="-37.5" width="450" fill="#ffffff" y="-37.499999" height="449.999989" fill-opacity="1"/><rect x="-37.5" fill="url(#1939209103)" width="450" y="-37.499999" height="449.999989"/><g clip-path="url(#0ce5972bd3)"><g clip-path="url(#dd1d303d6d)"><g clip-path="url(#6db7d97d97)"><g clip-path="url(#f8f9704ff2)"><path fill="#ffffff" d="M 260.488281 -23.375 L -20.613281 119.5625 L 124.871094 405.667969 L 405.96875 262.730469 Z M 260.488281 -23.375 " fill-opacity="1" fill-rule="nonzero"/></g></g></g></g><g fill="#f8d26b" fill-opacity="1"><g transform="translate(115.577785, 159.432317)"><g><path d="M -2.328125 -3.453125 L 0.875 -2.203125 L 0.25 -0.640625 L -6.921875 -3.453125 L -6.296875 -5.015625 L -3.09375 -3.765625 L -5.40625 -7.296875 L -4.625 -9.3125 L -2.125 -5.15625 L 2.59375 -6.625 L 1.765625 -4.484375 Z M -2.328125 -3.453125 "/></g></g></g><g fill="#f8d26b" fill-opacity="1"><g transform="translate(121.89034, 145.472768)"><g><path d="M 0.140625 -5.703125 L -2.6875 -6.34375 L -0.90625 -4.046875 Z M 4.1875 -6.53125 L 3.203125 -4.984375 L 1.609375 -5.359375 L 0.015625 -2.875 L 1.015625 -1.578125 L 0.03125 -0.046875 L -4.765625 -6.84375 L -3.984375 -8.046875 Z M 4.1875 -6.53125 "/></g></g></g><g fill="#f8d26b" fill-opacity="1"><g transform="translate(131.327192, 132.377953)"><g><path d="M -1.71875 -7.109375 L 2.734375 -2.859375 L 1.546875 -1.625 L -2.90625 -5.875 L -4.40625 -4.296875 L -5.53125 -5.359375 L -1.328125 -9.765625 L -0.203125 -8.703125 Z M -1.71875 -7.109375 "/></g></g></g><g fill="#f8d26b" fill-opacity="1"><g transform="translate(141.947945, 122.362609)"><g><path d="M 0.5625 -0.40625 L -3.984375 -6.625 L -2.625 -7.625 L 1.015625 -2.65625 L 3.25 -4.28125 L 4.15625 -3.03125 Z M 0.5625 -0.40625 "/></g></g></g><g fill="#f8d26b" fill-opacity="1"><g transform="translate(153.614216, 114.729683)"><g><path d="M 3.921875 -3.65625 L 4.609375 -2.265625 L 0.625 -0.296875 L -2.765625 -7.21875 L 1.21875 -9.1875 L 1.90625 -7.796875 L -0.578125 -6.578125 L 0.078125 -5.21875 L 2.46875 -6.390625 L 3.15625 -5 L 0.765625 -3.828125 L 1.4375 -2.4375 Z M 3.921875 -3.65625 "/></g></g></g><g fill="#f8d26b" fill-opacity="1"><g transform="translate(166.607205, 109.103037)"><g><path d="M 2.765625 -7.203125 C 2.378906 -7.097656 2.050781 -6.894531 1.78125 -6.59375 C 1.507812 -6.289062 1.316406 -5.9375 1.203125 -5.53125 C 1.097656 -5.125 1.101562 -4.710938 1.21875 -4.296875 C 1.320312 -3.878906 1.523438 -3.519531 1.828125 -3.21875 C 2.128906 -2.914062 2.472656 -2.703125 2.859375 -2.578125 C 3.242188 -2.453125 3.628906 -2.441406 4.015625 -2.546875 C 4.253906 -2.609375 4.5 -2.707031 4.75 -2.84375 C 5 -2.976562 5.210938 -3.175781 5.390625 -3.4375 C 5.566406 -3.695312 5.671875 -4.035156 5.703125 -4.453125 L 3.796875 -3.9375 L 3.46875 -5.171875 L 7.140625 -6.15625 L 7.203125 -5.921875 C 7.347656 -5.378906 7.382812 -4.851562 7.3125 -4.34375 C 7.238281 -3.832031 7.070312 -3.351562 6.8125 -2.90625 C 6.550781 -2.457031 6.21875 -2.070312 5.8125 -1.75 C 5.40625 -1.425781 4.9375 -1.195312 4.40625 -1.0625 C 3.882812 -0.914062 3.363281 -0.882812 2.84375 -0.96875 C 2.332031 -1.050781 1.851562 -1.21875 1.40625 -1.46875 C 0.957031 -1.726562 0.570312 -2.054688 0.25 -2.453125 C -0.0703125 -2.859375 -0.304688 -3.332031 -0.453125 -3.875 C -0.585938 -4.394531 -0.617188 -4.914062 -0.546875 -5.4375 C -0.472656 -5.957031 -0.300781 -6.4375 -0.03125 -6.875 C 0.226562 -7.320312 0.5625 -7.703125 0.96875 -8.015625 C 1.375 -8.335938 1.835938 -8.570312 2.359375 -8.71875 C 2.898438 -8.863281 3.445312 -8.890625 4 -8.796875 C 4.5625 -8.710938 5.078125 -8.519531 5.546875 -8.21875 C 6.015625 -7.914062 6.398438 -7.535156 6.703125 -7.078125 L 4.890625 -6.59375 C 4.609375 -6.9375 4.273438 -7.144531 3.890625 -7.21875 C 3.503906 -7.300781 3.128906 -7.296875 2.765625 -7.203125 Z M 2.765625 -7.203125 "/></g></g></g><g fill="#f8d26b" fill-opacity="1"><g transform="translate(183.380821, 105.553278)"><g><path d="M 6.4375 -4.171875 C 6.414062 -4.578125 6.289062 -4.945312 6.0625 -5.28125 C 5.84375 -5.613281 5.554688 -5.875 5.203125 -6.0625 C 4.847656 -6.257812 4.46875 -6.347656 4.0625 -6.328125 C 3.664062 -6.304688 3.300781 -6.179688 2.96875 -5.953125 C 2.632812 -5.734375 2.367188 -5.445312 2.171875 -5.09375 C 1.972656 -4.738281 1.882812 -4.359375 1.90625 -3.953125 C 1.925781 -3.566406 2.050781 -3.203125 2.28125 -2.859375 C 2.507812 -2.523438 2.800781 -2.257812 3.15625 -2.0625 C 3.507812 -1.863281 3.882812 -1.773438 4.28125 -1.796875 C 4.6875 -1.816406 5.054688 -1.941406 5.390625 -2.171875 C 5.722656 -2.398438 5.984375 -2.691406 6.171875 -3.046875 C 6.367188 -3.410156 6.457031 -3.785156 6.4375 -4.171875 Z M 8.125 -4.25 C 8.15625 -3.71875 8.070312 -3.207031 7.875 -2.71875 C 7.6875 -2.226562 7.421875 -1.789062 7.078125 -1.40625 C 6.734375 -1.019531 6.328125 -0.710938 5.859375 -0.484375 C 5.398438 -0.253906 4.898438 -0.125 4.359375 -0.09375 C 3.828125 -0.0703125 3.316406 -0.148438 2.828125 -0.328125 C 2.335938 -0.515625 1.898438 -0.785156 1.515625 -1.140625 C 1.140625 -1.492188 0.832031 -1.90625 0.59375 -2.375 C 0.363281 -2.84375 0.234375 -3.34375 0.203125 -3.875 C 0.179688 -4.40625 0.265625 -4.910156 0.453125 -5.390625 C 0.648438 -5.878906 0.921875 -6.3125 1.265625 -6.6875 C 1.609375 -7.070312 2.015625 -7.378906 2.484375 -7.609375 C 2.953125 -7.847656 3.453125 -7.976562 3.984375 -8 C 4.523438 -8.03125 5.035156 -7.953125 5.515625 -7.765625 C 6.003906 -7.578125 6.4375 -7.304688 6.8125 -6.953125 C 7.195312 -6.609375 7.503906 -6.203125 7.734375 -5.734375 C 7.972656 -5.273438 8.101562 -4.78125 8.125 -4.25 Z M 8.125 -4.25 "/></g></g></g><g fill="#f8d26b" fill-opacity="1"><g transform="translate(200.483506, 105.742445)"><g/></g></g><g fill="#f8d26b" fill-opacity="1"><g transform="translate(211.541956, 107.613691)"><g><path d="M 9.765625 3.1875 L 8 2.609375 L 8.796875 -2.71875 L 5.703125 1.859375 L 4.125 1.34375 L 4.34375 -4.171875 L 1.828125 0.59375 L 0.0625 0.015625 L 3.859375 -6.84375 L 5.78125 -6.21875 L 5.640625 -0.578125 L 8.84375 -5.21875 L 10.75 -4.59375 Z M 9.765625 3.1875 "/></g></g></g><g fill="#f8d26b" fill-opacity="1"><g transform="translate(228.862411, 114.350487)"><g><path d="M 5.703125 -0.078125 L 6.234375 -2.9375 L 4.015625 -1.0625 Z M 6.6875 3.921875 L 5.109375 3 L 5.421875 1.390625 L 2.875 -0.09375 L 1.609375 0.953125 L 0.046875 0.03125 L 6.65625 -5.03125 L 7.890625 -4.296875 Z M 6.6875 3.921875 "/></g></g></g><g fill="#f8d26b" fill-opacity="1"><g transform="translate(242.310474, 123.24675)"><g><path d="M 3.53125 1.546875 C 3.664062 1.671875 3.832031 1.78125 4.03125 1.875 C 4.238281 1.96875 4.441406 2.019531 4.640625 2.03125 C 4.835938 2.039062 5.015625 1.957031 5.171875 1.78125 C 5.304688 1.625 5.351562 1.441406 5.3125 1.234375 C 5.28125 1.035156 5.191406 0.816406 5.046875 0.578125 C 4.910156 0.335938 4.75 0.0859375 4.5625 -0.171875 C 4.382812 -0.441406 4.207031 -0.71875 4.03125 -1 C 3.863281 -1.28125 3.734375 -1.570312 3.640625 -1.875 C 3.554688 -2.175781 3.539062 -2.476562 3.59375 -2.78125 C 3.65625 -3.09375 3.820312 -3.398438 4.09375 -3.703125 C 4.351562 -3.992188 4.640625 -4.191406 4.953125 -4.296875 C 5.273438 -4.398438 5.601562 -4.429688 5.9375 -4.390625 C 6.28125 -4.359375 6.609375 -4.257812 6.921875 -4.09375 C 7.242188 -3.9375 7.535156 -3.742188 7.796875 -3.515625 C 8.191406 -3.160156 8.503906 -2.769531 8.734375 -2.34375 C 8.960938 -1.914062 9.066406 -1.46875 9.046875 -1 C 9.023438 -0.539062 8.820312 -0.09375 8.4375 0.34375 L 7.21875 -0.75 C 7.457031 -1.0625 7.539062 -1.351562 7.46875 -1.625 C 7.394531 -1.90625 7.195312 -2.191406 6.875 -2.484375 C 6.757812 -2.585938 6.617188 -2.675781 6.453125 -2.75 C 6.285156 -2.820312 6.113281 -2.851562 5.9375 -2.84375 C 5.769531 -2.84375 5.625 -2.773438 5.5 -2.640625 C 5.363281 -2.484375 5.316406 -2.3125 5.359375 -2.125 C 5.398438 -1.9375 5.492188 -1.726562 5.640625 -1.5 C 5.796875 -1.269531 5.96875 -1.019531 6.15625 -0.75 C 6.351562 -0.476562 6.535156 -0.207031 6.703125 0.0625 C 6.867188 0.34375 6.992188 0.632812 7.078125 0.9375 C 7.160156 1.25 7.171875 1.5625 7.109375 1.875 C 7.054688 2.1875 6.890625 2.5 6.609375 2.8125 C 6.304688 3.144531 5.976562 3.367188 5.625 3.484375 C 5.28125 3.597656 4.925781 3.625 4.5625 3.5625 C 4.207031 3.507812 3.859375 3.390625 3.515625 3.203125 C 3.171875 3.015625 2.851562 2.796875 2.5625 2.546875 C 2.132812 2.160156 1.800781 1.726562 1.5625 1.25 C 1.320312 0.78125 1.21875 0.296875 1.25 -0.203125 C 1.289062 -0.703125 1.519531 -1.1875 1.9375 -1.65625 L 3.21875 -0.515625 C 2.9375 -0.160156 2.84375 0.203125 2.9375 0.578125 C 3.03125 0.953125 3.226562 1.273438 3.53125 1.546875 Z M 3.53125 1.546875 "/></g></g></g><g fill="#f8d26b" fill-opacity="1"><g transform="translate(253.302884, 134.171842)"><g><path d="M 4.359375 3.125 L 3.140625 4.0625 L 0.421875 0.546875 L 6.515625 -4.15625 L 9.234375 -0.640625 L 8.015625 0.296875 L 6.328125 -1.890625 L 5.125 -0.953125 L 6.75 1.15625 L 5.53125 2.09375 L 3.90625 -0.015625 L 2.671875 0.9375 Z M 4.359375 3.125 "/></g></g></g><g fill="#f8d26b" fill-opacity="1"><g transform="translate(261.396905, 145.832146)"><g><path d="M 4.140625 0.546875 L 1.078125 2.109375 L 0.3125 0.609375 L 7.171875 -2.90625 L 7.9375 -1.40625 L 4.875 0.171875 L 9.046875 0.765625 L 10.046875 2.703125 L 5.28125 1.828125 L 3.234375 6.328125 L 2.1875 4.28125 Z M 4.140625 0.546875 "/></g></g></g><g fill="#f8d26b" fill-opacity="1"><g transform="translate(267.688879, 159.779483)"><g><path d="M 5.5 5.34375 C 5.894531 5.226562 6.226562 5.023438 6.5 4.734375 C 6.769531 4.453125 6.957031 4.113281 7.0625 3.71875 C 7.175781 3.332031 7.179688 2.945312 7.078125 2.5625 C 6.972656 2.175781 6.769531 1.847656 6.46875 1.578125 C 6.175781 1.304688 5.835938 1.109375 5.453125 0.984375 C 5.066406 0.867188 4.675781 0.867188 4.28125 0.984375 C 3.90625 1.085938 3.578125 1.289062 3.296875 1.59375 C 3.023438 1.894531 2.832031 2.238281 2.71875 2.625 C 2.601562 3.007812 2.597656 3.394531 2.703125 3.78125 C 2.804688 4.164062 3.007812 4.492188 3.3125 4.765625 C 3.613281 5.046875 3.957031 5.238281 4.34375 5.34375 C 4.738281 5.445312 5.125 5.445312 5.5 5.34375 Z M 5.953125 6.984375 C 5.441406 7.117188 4.925781 7.148438 4.40625 7.078125 C 3.882812 7.003906 3.394531 6.84375 2.9375 6.59375 C 2.488281 6.34375 2.097656 6.015625 1.765625 5.609375 C 1.441406 5.210938 1.207031 4.753906 1.0625 4.234375 C 0.914062 3.722656 0.878906 3.207031 0.953125 2.6875 C 1.023438 2.164062 1.191406 1.679688 1.453125 1.234375 C 1.710938 0.785156 2.046875 0.390625 2.453125 0.046875 C 2.859375 -0.285156 3.316406 -0.519531 3.828125 -0.65625 C 4.335938 -0.800781 4.847656 -0.832031 5.359375 -0.75 C 5.878906 -0.664062 6.363281 -0.5 6.8125 -0.25 C 7.257812 0 7.648438 0.328125 7.984375 0.734375 C 8.316406 1.140625 8.554688 1.597656 8.703125 2.109375 C 8.847656 2.628906 8.878906 3.144531 8.796875 3.65625 C 8.722656 4.175781 8.554688 4.660156 8.296875 5.109375 C 8.046875 5.554688 7.71875 5.941406 7.3125 6.265625 C 6.914062 6.597656 6.460938 6.835938 5.953125 6.984375 Z M 5.953125 6.984375 "/></g></g></g><g fill="#f8d26b" fill-opacity="1"><g transform="translate(271.375332, 176.380922)"><g><path d="M 3.265625 4.671875 L 5.921875 3.5 L 3.140625 2.734375 Z M 0.5 7.734375 L 0.390625 5.90625 L 1.890625 5.265625 L 1.703125 2.34375 L 0.125 1.875 L 0 0.0625 L 7.890625 2.6875 L 7.984375 4.109375 Z M 0.5 7.734375 "/></g></g></g><g fill="#f8d26b" fill-opacity="1"><g transform="translate(271.664418, 192.44688)"><g><path d="M -1.546875 10.171875 L -1.265625 8.328125 L 4.125 8.234375 L -0.90625 5.9375 L -0.65625 4.296875 L 4.828125 3.59375 L -0.28125 1.90625 L -0.015625 0.0625 L 7.375 2.6875 L 7.078125 4.671875 L 1.484375 5.453125 L 6.59375 7.859375 L 6.28125 9.859375 Z M -1.546875 10.171875 "/></g></g></g><g fill="#f8d26b" fill-opacity="1"><g transform="translate(267.810815, 210.663633)"><g><path d="M -0.328125 5.34375 L -1.78125 4.8125 L -0.234375 0.640625 L 6.984375 3.3125 L 5.4375 7.484375 L 3.984375 6.953125 L 4.9375 4.375 L 3.515625 3.84375 L 2.59375 6.328125 L 1.15625 5.796875 L 2.078125 3.3125 L 0.625 2.765625 Z M -0.328125 5.34375 "/></g></g></g><g fill="#f8d26b" fill-opacity="1"><g transform="translate(262.22193, 223.704096)"><g><path d="M -3.46875 5.765625 L -2.59375 4.3125 L 2.890625 4.5 L -1.21875 2.03125 L -0.359375 0.59375 L 6.234375 4.5625 L 5.375 6 L -0.109375 5.8125 L 4 8.28125 L 3.125 9.734375 Z M -3.46875 5.765625 "/></g></g></g><g fill="#f8d26b" fill-opacity="1"><g transform="translate(253.473703, 236.745154)"><g><path d="M 1.5 7.5625 C 1.78125 7.257812 1.953125 6.910156 2.015625 6.515625 C 2.085938 6.117188 2.0625 5.71875 1.9375 5.3125 C 1.8125 4.914062 1.585938 4.566406 1.265625 4.265625 C 0.953125 3.984375 0.585938 3.789062 0.171875 3.6875 C -0.234375 3.59375 -0.628906 3.59375 -1.015625 3.6875 C -1.410156 3.789062 -1.75 3.992188 -2.03125 4.296875 C -2.195312 4.472656 -2.347656 4.6875 -2.484375 4.9375 C -2.617188 5.1875 -2.691406 5.46875 -2.703125 5.78125 C -2.710938 6.101562 -2.625 6.445312 -2.4375 6.8125 L -1.109375 5.359375 L -0.171875 6.234375 L -2.75 9.03125 L -2.9375 8.859375 C -3.34375 8.484375 -3.648438 8.054688 -3.859375 7.578125 C -4.066406 7.097656 -4.179688 6.601562 -4.203125 6.09375 C -4.234375 5.582031 -4.160156 5.082031 -3.984375 4.59375 C -3.804688 4.101562 -3.53125 3.65625 -3.15625 3.25 C -2.789062 2.851562 -2.367188 2.546875 -1.890625 2.328125 C -1.410156 2.117188 -0.914062 2.003906 -0.40625 1.984375 C 0.101562 1.960938 0.601562 2.035156 1.09375 2.203125 C 1.59375 2.378906 2.046875 2.65625 2.453125 3.03125 C 2.847656 3.394531 3.148438 3.816406 3.359375 4.296875 C 3.566406 4.785156 3.679688 5.28125 3.703125 5.78125 C 3.722656 6.289062 3.644531 6.796875 3.46875 7.296875 C 3.289062 7.796875 3.019531 8.242188 2.65625 8.640625 C 2.269531 9.054688 1.820312 9.367188 1.3125 9.578125 C 0.800781 9.796875 0.269531 9.90625 -0.28125 9.90625 C -0.84375 9.90625 -1.378906 9.789062 -1.890625 9.5625 L -0.609375 8.1875 C -0.179688 8.320312 0.210938 8.316406 0.578125 8.171875 C 0.941406 8.035156 1.25 7.832031 1.5 7.5625 Z M 1.5 7.5625 "/></g></g></g><g fill="#f8d26b" fill-opacity="1"><g transform="translate(139.961172, 208.496221)"><g><path d="M 45.34375 -2.984375 C 44.851562 -1.921875 44.125 -1.15625 43.15625 -0.6875 C 42.1875 -0.226562 41.171875 0 40.109375 0 C 38.304688 0 36.847656 -0.421875 35.734375 -1.265625 C 34.617188 -2.117188 33.722656 -3.203125 33.046875 -4.515625 C 32.171875 -6.117188 31.40625 -7.910156 30.75 -9.890625 C 30.09375 -11.878906 29.5 -13.867188 28.96875 -15.859375 C 28.4375 -17.847656 27.851562 -19.671875 27.21875 -21.328125 C 26.050781 -24.628906 24.410156 -26.316406 22.296875 -26.390625 C 20.191406 -26.460938 17.878906 -25.285156 15.359375 -22.859375 C 14.628906 -22.128906 13.945312 -21.363281 13.3125 -20.5625 C 12.6875 -19.757812 12.109375 -18.992188 11.578125 -18.265625 L 11.578125 -10.265625 C 11.578125 -6.429688 11.960938 -3.859375 12.734375 -2.546875 C 13.515625 -1.234375 14.679688 -0.601562 16.234375 -0.65625 L 16.234375 0 L 0 0 L 0 -0.65625 C 1.550781 -0.601562 2.710938 -1.234375 3.484375 -2.546875 C 4.265625 -3.859375 4.65625 -6.429688 4.65625 -10.265625 L 4.65625 -39.453125 C 4.65625 -43.328125 4.265625 -45.929688 3.484375 -47.265625 C 2.710938 -48.597656 1.550781 -49.21875 0 -49.125 L 0 -49.78125 L 16.234375 -49.78125 L 16.234375 -49.125 C 14.679688 -49.21875 13.515625 -48.597656 12.734375 -47.265625 C 11.960938 -45.929688 11.578125 -43.328125 11.578125 -39.453125 L 11.578125 -20.59375 C 12.492188 -21.8125 13.398438 -22.90625 14.296875 -23.875 C 15.191406 -24.84375 16.148438 -25.859375 17.171875 -26.921875 L 33.1875 -44.03125 C 33.625 -44.519531 33.960938 -45.003906 34.203125 -45.484375 C 34.453125 -45.972656 34.429688 -46.53125 34.140625 -47.15625 C 34.035156 -47.445312 33.960938 -47.617188 33.921875 -47.671875 C 33.523438 -48.453125 33.035156 -48.898438 32.453125 -49.015625 C 31.878906 -49.140625 31.101562 -49.175781 30.125 -49.125 L 30.125 -49.78125 L 42.28125 -49.78125 L 42.28125 -49.125 C 41.164062 -49.175781 40.328125 -48.984375 39.765625 -48.546875 C 39.210938 -48.109375 38.597656 -47.550781 37.921875 -46.875 C 37.335938 -46.289062 36.753906 -45.707031 36.171875 -45.125 C 35.585938 -44.539062 35.003906 -43.957031 34.421875 -43.375 L 20.8125 -28.828125 C 21.488281 -29.066406 22.164062 -29.269531 22.84375 -29.4375 C 23.53125 -29.601562 24.257812 -29.6875 25.03125 -29.6875 C 27.5625 -29.6875 29.476562 -28.972656 30.78125 -27.546875 C 32.09375 -26.117188 33.066406 -24.429688 33.703125 -22.484375 C 34.035156 -21.472656 34.46875 -20.101562 35 -18.375 C 35.539062 -16.65625 36.125 -14.847656 36.75 -12.953125 C 37.382812 -11.054688 38.039062 -9.320312 38.71875 -7.75 C 39.394531 -6.175781 40.050781 -5.023438 40.6875 -4.296875 C 41.21875 -3.710938 41.859375 -3.257812 42.609375 -2.9375 C 43.359375 -2.625 44.097656 -2.785156 44.828125 -3.421875 Z M 45.34375 -2.984375 "/></g></g></g><g fill="#f8d26b" fill-opacity="1"><g transform="translate(174.978317, 229.027324)"><g><path d="M 44.328125 -10.265625 L 44.328125 -45.859375 L 28.234375 0 L 20.8125 0 L 5.96875 -42.65625 L 5.96875 -10.265625 C 5.96875 -6.429688 6.351562 -3.859375 7.125 -2.546875 C 7.90625 -1.234375 9.070312 -0.601562 10.625 -0.65625 L 10.625 0 L 0 0 L 0 -0.65625 C 1.550781 -0.601562 2.710938 -1.234375 3.484375 -2.546875 C 4.265625 -3.859375 4.65625 -6.429688 4.65625 -10.265625 L 4.65625 -39.453125 C 4.65625 -43.328125 4.265625 -45.929688 3.484375 -47.265625 C 2.710938 -48.597656 1.550781 -49.21875 0 -49.125 L 0 -49.78125 L 10.84375 -49.78125 L 27.515625 -1.8125 L 44.328125 -49.78125 L 55.890625 -49.78125 L 55.890625 -49.125 C 54.335938 -49.21875 53.171875 -48.597656 52.390625 -47.265625 C 51.617188 -45.929688 51.234375 -43.328125 51.234375 -39.453125 L 51.234375 -10.265625 C 51.234375 -6.429688 51.617188 -3.859375 52.390625 -2.546875 C 53.171875 -1.234375 54.335938 -0.601562 55.890625 -0.65625 L 55.890625 0 L 39.671875 0 L 39.671875 -0.65625 C 41.222656 -0.601562 42.382812 -1.234375 43.15625 -2.546875 C 43.9375 -3.859375 44.328125 -6.429688 44.328125 -10.265625 Z M 44.328125 -10.265625 "/></g></g></g></svg>